<?xml version="1.0" standalone="no"?>
<!DOCTYPE svg PUBLIC "-//W3C//DTD SVG 20010904//EN"
 "http://www.w3.org/TR/2001/REC-SVG-20010904/DTD/svg10.dtd">
<svg version="1.0" xmlns="http://www.w3.org/2000/svg"
 width="1024.000000pt" height="1024.000000pt" viewBox="0 0 1024.000000 1024.000000"
 preserveAspectRatio="xMidYMid meet">

<g transform="translate(0.000000,1024.000000) scale(0.100000,-0.100000)"
fill="#000000" stroke="none">
<path d="M0 5120 l0 -5120 5120 0 5120 0 0 5120 0 5120 -5120 0 -5120 0 0
-5120z m5410 1371 l35 -7 3 -287 c1 -158 1 -287 0 -287 -21 3 -106 38 -102 43
3 3 17 2 31 -4 32 -12 66 -12 58 1 -3 6 -16 11 -28 11 -17 1 -15 3 8 9 23 6
25 8 8 9 -28 1 -38 18 -22 37 9 11 8 18 -5 32 -9 10 -16 25 -17 33 0 10 -2 10
-6 2 -2 -7 -12 -13 -21 -13 -14 0 -14 2 -3 9 8 5 11 16 6 30 -3 12 -10 19 -15
16 -5 -3 -11 -1 -15 5 -3 5 -1 10 5 10 6 0 1 14 -11 32 -13 17 -18 28 -11 24
8 -5 10 -2 6 8 -3 8 -12 12 -20 9 -11 -4 -14 4 -14 35 0 23 -6 45 -15 52 -8 7
-15 18 -15 25 0 12 -55 66 -62 60 -2 -2 -17 7 -33 20 -17 14 -22 22 -12 19 27
-10 20 4 -10 19 -16 8 -35 12 -43 10 -10 -3 -11 -2 -3 4 19 13 2 29 -42 39
-36 8 -30 9 55 14 92 5 239 -4 310 -19z m-422 2 c-10 -2 -28 -2 -40 0 -13 2
-5 4 17 4 22 1 32 -1 23 -4z m276 -209 c5 -14 4 -15 -9 -4 -17 14 -19 20 -6
20 5 0 12 -7 15 -16z m116 -298 c0 -3 -4 -8 -10 -11 -5 -3 -10 -1 -10 4 0 6 5
11 10 11 6 0 10 -2 10 -4z m-53 -32 c-3 -3 -12 -4 -19 -1 -8 3 -5 6 6 6 11 1
17 -2 13 -5z m-1017 -509 c0 -36 -15 -55 -45 -55 -53 0 -72 73 -26 96 37 19
71 -1 71 -41z m-1510 -225 l0 -250 145 0 145 0 0 -35 0 -35 -190 0 -190 0 0
285 0 285 45 0 45 0 0 -250z m2688 203 l-3 -48 -155 -3 -155 -2 3 -75 4 -74
131 -3 132 -3 3 -47 3 -47 -138 -3 -138 -3 -3 -73 c-2 -41 -8 -84 -13 -95 -8
-19 -8 -17 -4 8 7 41 -9 65 -24 38 -5 -11 -7 -23 -4 -27 3 -3 3 -6 -1 -6 -3 0
-12 12 -18 28 l-12 27 -4 -25 c-4 -23 -5 -24 -13 -5 -6 15 -8 10 -7 -20 1 -23
9 -45 18 -52 13 -11 12 -12 -7 -13 l-23 0 0 285 0 285 216 0 215 0 -3 -47z
m448 -119 c31 -18 58 -46 72 -72 28 -50 40 -141 23 -168 -11 -17 -12 -16 -6 9
3 17 0 36 -10 50 -8 12 -15 28 -15 37 1 8 7 2 15 -15 10 -23 13 -25 14 -10 0
26 -20 61 -36 60 -16 0 -46 -42 -39 -53 3 -5 1 -22 -4 -38 -8 -28 -8 -28 -10
-4 -2 49 -43 114 -84 134 -36 17 -43 18 -79 5 -55 -19 -79 -55 -85 -126 -4
-44 -7 -52 -13 -36 -7 20 -11 21 -38 10 -24 -9 -31 -17 -31 -39 0 -28 15 -38
23 -15 2 6 4 -3 3 -20 -1 -18 -3 -33 -6 -33 -16 0 -43 69 -47 120 -6 68 17
128 69 179 70 68 197 79 284 25z m524 11 c0 -13 -8 -29 -17 -35 -17 -11 -17
-11 0 -6 9 3 17 1 17 -4 0 -6 -8 -10 -17 -11 -11 0 -13 -3 -5 -6 21 -8 13 -25
-10 -23 -54 5 -80 -2 -103 -25 -14 -13 -25 -19 -26 -12 0 7 -5 3 -10 -8 l-9
-20 3 20 c1 11 7 20 12 20 6 0 20 10 33 23 12 12 34 22 50 23 15 0 21 3 14 6
-9 3 -7 10 9 24 12 10 17 19 11 19 -7 0 -20 -8 -30 -18 -19 -19 -52 -36 -64
-34 -5 1 -8 -3 -8 -9 0 -17 -21 1 -32 29 -6 15 -12 22 -15 15 -2 -7 1 -22 7
-33 6 -12 9 -24 7 -26 -3 -3 -11 9 -18 25 -12 26 -15 28 -21 13 -6 -15 -7 -15
-8 3 -2 17 -3 16 -10 -5 l-8 -25 -1 25 c-1 20 -3 22 -11 10 -5 -8 -10 -92 -10
-187 l0 -172 28 -4 c25 -4 25 -4 -5 -6 l-33 -1 0 215 0 215 55 0 55 0 0 -35
c0 -42 6 -43 33 -9 24 30 70 53 110 54 22 0 27 -4 27 -25z m974 -5 c24 -15 54
-48 69 -73 33 -55 35 -72 5 -27 -24 34 -57 48 -69 28 -4 -6 -5 -27 -3 -47 l4
-36 -13 34 c-27 69 -91 90 -155 51 -21 -13 -35 -31 -39 -50 -3 -17 -9 -30 -13
-30 -11 0 0 40 17 65 17 25 16 32 -1 38 -10 4 -12 0 -9 -14 3 -10 0 -19 -6
-19 -6 0 -11 5 -11 10 0 19 -29 10 -49 -17 -33 -41 -35 -21 -3 23 68 93 186
120 276 64z m-3959 -8 c103 -61 136 -215 68 -320 -66 -102 -226 -121 -320 -39
-129 113 -81 336 82 378 44 12 135 1 170 -19z m446 18 c20 -6 45 -20 55 -31
l19 -21 5 24 c5 18 13 24 43 26 25 2 37 -1 38 -10 1 -7 0 -110 -1 -228 -2
-245 -8 -269 -82 -317 -38 -26 -50 -28 -137 -28 -80 0 -103 4 -138 23 -24 12
-43 26 -43 30 1 4 11 20 24 36 l24 28 29 -21 c66 -50 196 -33 227 28 14 28 31
111 23 111 -3 0 -19 -13 -35 -29 -76 -76 -229 -41 -282 65 -27 53 -27 153 -1
211 42 91 132 131 232 103z m804 -9 c22 -10 49 -26 60 -34 20 -16 20 -16 -7
-43 l-26 -27 -27 21 c-60 47 -155 31 -195 -33 -27 -44 -27 -128 0 -173 39 -63
130 -78 193 -31 29 21 30 21 54 3 14 -11 25 -23 26 -29 0 -5 -22 -23 -48 -40
-42 -26 -58 -30 -119 -30 -62 0 -77 4 -116 30 -90 60 -118 186 -64 293 48 97
170 139 269 93z m1956 10 c-11 -7 -11 -9 0 -14 8 -4 2 -4 -12 -1 -15 3 -30 1
-33 -5 -5 -7 -1 -8 11 -4 15 6 16 5 3 -9 -9 -9 -18 -12 -21 -6 -3 5 -18 -7
-33 -26 -15 -20 -23 -36 -19 -36 4 0 2 -4 -6 -9 -8 -5 -14 -27 -15 -54 -1 -47
-16 -56 -16 -9 0 37 46 132 73 151 27 20 48 29 67 30 12 1 13 -1 1 -8z m154
-21 c21 -16 33 -30 27 -30 -6 0 -14 5 -17 11 -4 6 -13 8 -21 5 -7 -3 -19 3
-26 13 -7 10 -20 20 -28 24 -11 4 -9 6 6 6 12 1 38 -12 59 -29z m90 18 c-11
-6 -25 -19 -32 -27 -11 -14 -12 -12 -13 12 0 24 4 27 33 27 29 -1 30 -2 12
-12z m55 -3 c0 -8 -5 -15 -11 -15 -5 0 -8 4 -5 9 4 5 0 12 -6 14 -8 3 -6 6 5
6 9 1 17 -6 17 -14z m-2682 -207 l-3 -213 -35 0 -35 0 -3 200 c-1 110 0 205 2
212 3 7 21 13 41 13 l35 0 -2 -212z m2377 162 c3 -6 -1 -7 -9 -4 -18 7 -21 14
-7 14 6 0 13 -4 16 -10z m162 -15 c-1 -5 7 -9 18 -7 15 2 17 0 6 -6 -9 -7 -10
-12 -2 -16 6 -4 11 -13 11 -19 0 -8 -3 -9 -8 -1 -18 26 -60 44 -103 44 -40 0
-53 -5 -80 -32 -21 -22 -30 -26 -26 -14 4 10 2 25 -4 32 -7 9 -8 14 -1 14 6 0
12 -6 15 -12 3 -10 7 -10 20 1 32 25 157 39 154 16z m297 -102 c-10 -40 -14
-41 -14 -5 0 18 5 32 10 32 6 0 8 -11 4 -27z m-1144 -28 c0 -8 -4 -17 -10 -20
-6 -4 -10 5 -10 20 0 15 4 24 10 20 6 -3 10 -12 10 -20z m1408 16 c6 -1 12 -5
12 -9 0 -11 -28 -8 -60 6 -25 11 -25 11 5 8 17 -3 36 -5 43 -5z m-171 -23 c-3
-8 -6 -5 -6 6 -1 11 2 17 5 13 3 -3 4 -12 1 -19z m32 15 c0 -5 -4 -17 -9 -28
-8 -17 -8 -16 -7 8 1 15 5 27 9 27 4 0 8 -3 7 -7z m-972 -35 c-3 -8 -6 -5 -6
6 -1 11 2 17 5 13 3 -3 4 -12 1 -19z m273 -33 c0 -5 -5 -3 -10 5 -5 8 -10 20
-10 25 0 6 5 3 10 -5 5 -8 10 -19 10 -25z m905 25 c19 -5 -13 -8 -90 -9 -81 0
-115 2 -105 9 17 11 151 11 195 0z m-585 -15 c0 -8 -4 -15 -10 -15 -5 0 -7 7
-4 15 4 8 8 15 10 15 2 0 4 -7 4 -15z m-950 -18 c0 -7 -7 -22 -15 -33 -13 -17
-14 -16 -4 14 11 33 19 41 19 19z m1219 -41 c-3 -3 -11 5 -18 17 -13 21 -12
21 5 5 10 -10 16 -20 13 -22z m347 -49 c24 9 15 -5 -18 -28 -29 -20 -31 -20
-16 -3 12 14 15 24 8 32 -7 8 -7 9 1 3 6 -5 18 -7 25 -4z m-1835 -14 c13 -16
12 -17 -3 -4 -10 7 -18 15 -18 17 0 8 8 3 21 -13z m-534 -45 c-3 -8 -6 -5 -6
6 -1 11 2 17 5 13 3 -3 4 -12 1 -19z m1626 15 c-7 -2 -19 -2 -25 0 -7 3 -2 5
12 5 14 0 19 -2 13 -5z m-1583 -13 c0 -5 -7 -10 -16 -10 -8 0 -12 5 -9 10 3 6
10 10 16 10 5 0 9 -4 9 -10z m1120 0 c0 -5 -7 -10 -16 -10 -8 0 -12 5 -9 10 3
6 10 10 16 10 5 0 9 -4 9 -10z m304 -114 c-3 -9 -10 -16 -15 -16 -6 0 -5 9 1
21 13 24 24 20 14 -5z m263 -42 c-3 -3 -12 -4 -19 -1 -8 3 -5 6 6 6 11 1 17
-2 13 -5z"/>
<path d="M5100 6492 c0 -5 14 -7 30 -4 17 2 30 6 30 8 0 2 -13 4 -30 4 -16 0
-30 -4 -30 -8z"/>
<path d="M6365 5300 c-26 -29 -15 -32 15 -4 13 13 20 24 14 24 -6 0 -19 -9
-29 -20z"/>
<path d="M7370 5320 c-9 -6 -10 -10 -3 -10 6 0 15 5 18 10 8 12 4 12 -15 0z"/>
<path d="M7273 5278 c-1 -11 1 -16 5 -12 4 5 11 12 15 15 5 3 2 9 -5 12 -9 3
-14 -3 -15 -15z"/>
<path d="M7390 5265 c0 -2 10 -10 23 -16 20 -11 21 -11 8 4 -13 16 -31 23 -31
12z"/>
<path d="M3326 5250 c-121 -37 -130 -216 -13 -274 51 -24 100 -15 143 28 73
73 50 204 -42 242 -37 16 -47 16 -88 4z"/>
<path d="M3814 5241 c-83 -51 -85 -200 -2 -251 68 -41 143 -17 179 58 36 73
12 165 -52 198 -38 19 -88 18 -125 -5z"/>
</g>
</svg>
